<svg width="1553" height="306" viewBox="0 0 1553 306" fill="none" xmlns="http://www.w3.org/2000/svg">
<path d="M72.2 33.1C75.8 33.1 78.7 30.2 78.7 26.6C78.7 23 75.8 20.1 72.2 20.1C68.6 20.1 65.7 23 65.7 26.6C65.7 30.2 68.6 33.1 72.2 33.1Z" fill="white"/>
<path d="M0 46.7H48.8V301.6H95.5V46.7H144.4V4.20001H0V46.7ZM61.5 25.6C62 20.6 66 16.5 71 16C77.5 15.3 83 20.3 83 26.7C83 31.9 79.3 36.2 74.4 37.2V301.7H70.2V37.1C64.9 36.1 61 31.2 61.5 25.6Z" fill="white"/>
<path d="M237 281.4C236.9 285 239.8 287.9 243.4 288H243.5C247 288 249.9 285.2 250 281.6C250.1 278 247.2 275 243.6 275H243.5C239.9 275 237 277.8 237 281.4Z" fill="white"/>
<path d="M232.8 0C209.9 0 192.3 6.5 180.1 19.5C167.9 32.5 161.8 50.9 161.8 74.7V231C161.8 254.8 167.9 273.2 180.1 286.2C192.3 299.2 209.8 305.7 232.8 305.7C255.7 305.7 273.3 299.2 285.5 286.2C297.7 273.2 303.8 254.8 303.8 231V74.8C303.8 51 297.7 32.6 285.5 19.6C273.3 6.5 255.7 0 232.8 0ZM257 234.1C257 247.5 253.2 256.3 245.6 260.5V271C250.6 272 254.3 276.4 254.2 281.7C254.1 287.6 249.3 292.3 243.5 292.3H243.3C237.4 292.2 232.7 287.3 232.7 281.4C232.8 276.3 236.5 272 241.3 271.1V262.4C238.8 263.2 235.9 263.5 232.7 263.5C216.6 263.5 208.5 253.7 208.5 234.2V71.8C208.5 59.7 211.6 51.3 217.8 46.7C221.6 43.9 226.6 42.5 232.7 42.5C235.9 42.5 238.7 42.9 241.3 43.6C242.8 44 244.2 44.6 245.5 45.4C253.1 49.6 256.9 58.4 256.9 71.8V234.1H257Z" fill="white"/>
<path d="M350.5 118.2C350.5 121.8 353.4 124.7 357 124.7C360.6 124.7 363.5 121.8 363.5 118.2C363.5 114.6 360.6 111.7 357 111.7C353.4 111.7 350.5 114.6 350.5 118.2Z" fill="white"/>
<path d="M488.1 4.20001H440.5L381.9 132.1V4.20001H359.1V107.6C364 108.6 367.7 112.9 367.7 118.1C367.7 124.4 362.2 129.5 355.7 128.8C350.7 128.2 346.7 124.2 346.2 119.2C345.6 113.5 349.5 108.7 354.8 107.6V4.20001H335.1V301.6H381.8V208.1L400.9 170.7L440 301.5H488.8L432.3 113.3L488.1 4.20001ZM385.2 163.7C380 163.7 375.7 160 374.7 155.1H359.1V301.7H354.9V150.8H374.7C375.8 145.6 380.6 141.7 386.3 142.2C391.3 142.7 395.3 146.7 395.9 151.7C396.6 158.2 391.5 163.7 385.2 163.7Z" fill="white"/>
<path d="M385.2 146.4C381.6 146.4 378.7 149.3 378.7 152.9C378.7 156.5 381.6 159.4 385.2 159.4C388.8 159.4 391.7 156.5 391.7 152.9C391.7 149.3 388.8 146.4 385.2 146.4Z" fill="white"/>
<path d="M530 201.6C527.9 201.2 525.9 200.1 524.4 198.5C522.4 196.4 521.3 193.7 521.4 190.9C521.5 185 526.3 180.3 532.1 180.3H532.2C538.1 180.4 542.8 185.2 542.8 191V191.2C542.7 196.3 539 200.6 534.2 201.5V286.7H638.5V259.1H557.8V167.8H622V125.3H557.8V46.7H638.5V4.20001H536.5V101.4C541.5 102.4 545.2 106.8 545.1 112.1C545 118 540.2 122.7 534.4 122.7H534.3C529.6 122.6 525.3 119.5 524.1 115C522.3 108.5 526.5 102.6 532.3 101.5V4.20001H511V301.6H638.4V291H530V201.6Z" fill="white"/>
<path d="M527.9 111.9C527.9 113.6 528.5 115.3 529.7 116.5C530.9 117.8 532.5 118.5 534.3 118.5H534.4C537.9 118.5 540.8 115.7 540.9 112.1C541 108.6 538.3 105.8 534.9 105.5H533.9C532.4 105.6 531 106.3 529.9 107.3C528.6 108.5 527.9 110.2 527.9 111.9Z" fill="white"/>
<path d="M538.6 191.2C538.7 187.6 535.8 184.6 532.2 184.6H532.1C528.6 184.6 525.7 187.4 525.6 191C525.6 192.7 526.2 194.4 527.4 195.6C528.6 196.8 530.2 197.6 532 197.6H532.1C535.6 197.5 538.5 194.7 538.6 191.2Z" fill="white"/>
<path d="M716.7 36.6C716.5 33 713.5 30.2 709.9 30.4H709.8C706.3 30.6 703.5 33.7 703.7 37.2C703.9 40.8 706.9 43.6 710.5 43.4H710.6C712.3 43.3 713.8 42.5 715 41.3C716.2 40 716.8 38.4 716.7 36.6Z" fill="white"/>
<path d="M768.5 182.2L721.3 4.20001H663.5V301.6H705.1V84.5L762.9 301.6H810.1V4.20001H768.5V182.2ZM782.8 301.6L710.9 47.7H710.8C706 48 701.6 45.1 700.1 40.5C697.7 33.4 702.9 26.6 709.7 26.2C715.6 25.9 720.7 30.5 720.9 36.4C721 39.3 720 42 718.1 44.1C717.2 45.1 716.1 45.9 714.9 46.5L787.1 301.5H782.8V301.6Z" fill="white"/>
<path d="M1231.7 301.6C1219.5 301.4 1207.1 299.6 1194.7 296.1C1190.9 295 1189.1 293.5 1189.3 289.4C1190.3 274.6 1194 260.8 1201 248.5C1204.3 242.8 1208.2 237.4 1213 232.3C1216 229.1 1221.8 227 1226.4 226.9C1245.4 226.4 1264.5 226.7 1283.5 227C1299.9 227.3 1314.4 221.8 1327.6 212.6C1338.5 205 1343 193.5 1345.3 180.9C1344.3 180.8 1343.3 180.8 1342.3 180.6C1324.3 177.6 1321.9 173.2 1329.3 156.3C1315.1 153.4 1301 150.3 1286.8 147.9C1281.8 147.1 1278.9 145 1277.6 140.3C1270.3 113.5 1250.9 103 1225 101.3C1216.9 100.8 1208.8 100.1 1200.7 99.9C1195.3 99.8 1193.4 97.8 1193.1 92.2C1192.4 76.8 1191 61.4 1189.8 45C1177.8 50.5 1169.4 58.9 1163.5 69.2C1157.3 80.2 1153 92.2 1147.4 103.6C1134.6 129.7 1115.2 148.1 1085.5 155.1C1085.2 152.5 1085 149.8 1084.9 147.2C1084.8 149.1 1084.8 151.1 1084.8 153C1084.8 174.8 1089.5 195.5 1097.9 214.2C1121.2 265.2 1172.2 300.8 1231.7 301.6ZM1237.2 124.1C1244.4 123.8 1249.8 128.8 1250 136.1C1250.1 138.2 1249.6 140.2 1248.7 141.9C1246.8 145.6 1242.9 148.2 1238.2 148.3C1231.5 148.4 1225.8 143.2 1225.6 136.8C1225.6 135.1 1225.9 133.5 1226.4 132C1228.1 127.5 1232.2 124.4 1237.2 124.1Z" fill="white"/>
<path d="M984.3 4.20001H912.9V301.6H984.3C1030.7 301.6 1054 277.1 1054 228.1V77.7C1053.9 28.8 1030.7 4.20001 984.3 4.20001ZM1007.2 230.2C1007.2 249.5 999.3 259.1 983.4 259.1H959.6V46.7H983.4C999.3 46.7 1007.2 56.3 1007.2 75.6V230.2Z" fill="url(#paint0_linear)"/>
<path d="M1552.6 100.3V74.8C1552.6 50.7 1546.7 32.3 1534.8 19.4C1522.9 6.4 1505.6 0 1483 0C1460.3 0 1443.1 6.4 1431.2 19.3C1419.3 32.2 1413.4 50.7 1413.4 74.7V231C1413.4 255.1 1419.3 273.6 1431.2 286.4C1443.1 299.3 1460.4 305.7 1483 305.7C1505.7 305.7 1522.9 299.3 1534.8 286.4C1546.7 273.5 1552.6 255 1552.6 231V133.7H1485.1V176.2H1508.5V234.4C1508.5 253.7 1500.4 263.3 1484.3 263.3C1468.2 263.3 1460.1 253.7 1460.1 234.4V71.8C1460.1 52.3 1468.2 42.5 1484.3 42.5C1500.4 42.5 1508.5 52.3 1508.5 71.8V100.3H1552.6Z" fill="url(#paint1_linear)"/>
<path d="M1367.8 216.9C1368.2 216 1368.7 215.1 1369.1 214.2C1369.1 214.1 1369.2 214 1369.2 213.9C1374.6 201.9 1378.5 189.1 1380.5 175.7C1380.6 175.3 1380.6 175 1380.7 174.6C1380.8 174 1380.9 173.3 1381 172.7C1383 156.9 1382.5 140.5 1379.1 123.8C1373.3 95.7 1360.4 71.4 1342.9 52.2C1342.8 52 1342.6 51.9 1342.5 51.7C1342.1 51.2 1341.6 50.7 1341.2 50.3C1314.1 22 1276 4.29999 1233.7 4.29999C1225.4 4.39999 1217 5.19999 1208.7 6.69999C1195.9 9.09999 1184 12.6 1173.1 17.2C1145.8 29.4 1122.9 49.6 1107.3 74.8C1100.3 86.7 1094.5 99.9 1090.1 114.5C1087.3 125 1085.6 135.9 1085.2 147.1C1085.3 149.7 1085.5 152.4 1085.8 155C1115.5 148.1 1134.9 129.6 1147.7 103.5C1153.3 92.1 1157.5 80.1 1163.8 69.1C1169.6 58.8 1178.1 50.4 1190.1 44.9C1191.3 61.4 1192.7 76.7 1193.4 92.1C1193.6 97.7 1195.6 99.7 1201 99.8C1209.1 100 1217.2 100.7 1225.3 101.2C1251.2 102.9 1270.6 113.4 1277.9 140.2C1279.2 144.8 1282.1 146.9 1287.1 147.8C1301.3 150.2 1315.4 153.4 1329.6 156.2C1350.9 157.8 1352.3 160.1 1345.6 180.8C1343.3 193.4 1338.8 204.9 1327.9 212.5C1314.7 221.7 1300.2 227.1 1283.8 226.9C1264.8 226.6 1245.7 226.3 1226.7 226.8C1222.1 226.9 1216.4 229 1213.3 232.2C1208.5 237.2 1204.6 242.6 1201.3 248.4C1194.3 260.7 1190.6 274.5 1189.6 289.3C1189.3 293.4 1191.1 295 1195 296C1207.4 299.4 1219.8 301.3 1232.1 301.5C1232.3 301.5 1232.5 301.5 1232.7 301.5C1233.2 301.5 1233.8 301.5 1234.3 301.5C1243 301.5 1251.5 300.7 1259.8 299.2C1264.9 298.3 1269.9 297.1 1274.9 295.6C1280.8 293.9 1286.7 291.7 1292.6 289.2C1324.9 275.4 1351.1 250.4 1366.7 219.6C1367.1 218.9 1367.4 218.1 1367.8 217.4C1367.7 217.3 1367.7 217.1 1367.8 216.9Z" fill="url(#paint2_linear)"/>
<path d="M1238.2 148.2C1242.9 148.1 1246.8 145.6 1248.7 141.9C1249.6 140.2 1250 138.2 1250 136.2C1249.8 128.9 1244.4 123.9 1237.2 124.2C1232.2 124.4 1228.1 127.6 1226.4 132C1225.8 133.5 1225.5 135.1 1225.6 136.8C1225.7 143.1 1231.4 148.3 1238.2 148.2Z" fill="#575E6D"/>
<path d="M1349 165.4C1349 165.1 1349 164.8 1348.9 164.5C1348.8 163.9 1348.7 163.4 1348.6 162.9C1348.3 162.2 1348 161.5 1347.5 160.9C1346.2 159.4 1344 158.4 1340.7 157.7C1337.8 157.1 1334.1 156.7 1329.5 156.4C1322.1 173.3 1324.5 177.7 1342.5 180.7C1343.5 180.9 1344.5 180.9 1345.5 181C1347.4 175.2 1348.6 170.8 1349 167.5C1349 166.7 1349 166 1349 165.4Z" fill="#595F6D"/>
<defs>
<linearGradient id="paint0_linear" x1="912.887" y1="152.932" x2="1053.93" y2="152.932" gradientUnits="userSpaceOnUse">
<stop stop-color="#7F7FE3"/>
<stop offset="1" stop-color="#E9638A"/>
</linearGradient>
<linearGradient id="paint1_linear" x1="1413.31" y1="152.932" x2="1552.64" y2="152.932" gradientUnits="userSpaceOnUse">
<stop stop-color="#7F7FE3"/>
<stop offset="1" stop-color="#E9638A"/>
</linearGradient>
<linearGradient id="paint2_linear" x1="1085.07" y1="152.933" x2="1382.2" y2="152.933" gradientUnits="userSpaceOnUse">
<stop stop-color="#7F7FE3"/>
<stop offset="1" stop-color="#E9638A"/>
</linearGradient>
</defs>
</svg>
